<svg width="33" height="33" viewBox="0 0 33 33" fill="none" xmlns="http://www.w3.org/2000/svg">
<circle cx="16.5" cy="16.5" r="16.25" fill="#DDDDDD" stroke="#9E9E9E" stroke-width="0.5"/>
<g clip-path="url(#clip0)">
<path d="M25 16.7273C25 21.3977 21.4193 25.1818 17 25.1818C16.1742 25.1818 15.3806 25.0489 14.6322 24.8034C14.958 24.2409 15.4451 23.3205 15.6258 22.5875C15.7225 22.1921 16.1226 20.5761 16.1226 20.5761C16.3838 21.1011 17.1451 21.5477 17.9548 21.5477C20.3677 21.5477 22.1064 19.2023 22.1064 16.2875C22.1064 13.4955 19.9484 11.4057 17.1742 11.4057C13.7225 11.4057 11.8871 13.8534 11.8871 16.5227C11.8871 17.7636 12.5129 19.308 13.5096 19.7989C13.6613 19.8739 13.7419 19.8398 13.7774 19.6864C13.8032 19.5705 13.9387 18.9943 14 18.7284C14.0193 18.6432 14.0096 18.5682 13.9451 18.4864C13.6193 18.0602 13.3548 17.283 13.3548 16.5568C13.3548 14.6921 14.6903 12.8886 16.9677 12.8886C18.9322 12.8886 20.3096 14.3034 20.3096 16.3284C20.3096 18.6159 19.2161 20.2011 17.7935 20.2011C17.0096 20.2011 16.4193 19.5159 16.6096 18.6739C16.8355 17.6682 17.2709 16.5841 17.2709 15.858C17.2709 15.2102 16.9419 14.6682 16.258 14.6682C15.4548 14.6682 14.8096 15.5443 14.8096 16.7205C14.8096 17.4705 15.0484 17.975 15.0484 17.975C15.0484 17.975 14.258 21.5136 14.1129 22.175C13.9516 22.9046 14.0161 23.9341 14.0838 24.6023C11.1096 23.3716 8.99997 20.3102 8.99997 16.7273C8.99997 12.0568 12.5806 8.27274 17 8.27274C21.4193 8.27274 25 12.0568 25 16.7273Z" fill="#989898"/>
</g>
<defs>
<clipPath id="clip0">
<rect width="16" height="17.4545" fill="white" transform="translate(8.99997 8)"/>
</clipPath>
</defs>
</svg>
