<svg width="33" height="33" viewBox="0 0 33 33" fill="none" xmlns="http://www.w3.org/2000/svg">
<circle cx="16.5" cy="16.5" r="16.25" fill="#DDDDDD" stroke="#9E9E9E" stroke-width="0.5"/>
<g clip-path="url(#clip0)">
<path d="M23.3553 13.1721C23.3654 13.3272 23.3654 13.4823 23.3654 13.6373C23.3654 18.3664 20.066 23.8154 14.0355 23.8154C12.1776 23.8154 10.4518 23.2284 8.99997 22.2095C9.26394 22.2427 9.51772 22.2538 9.79184 22.2538C11.3248 22.2538 12.736 21.689 13.8629 20.7255C12.4213 20.6922 11.2132 19.6622 10.7969 18.2446C11 18.2778 11.203 18.3 11.4162 18.3C11.7106 18.3 12.0051 18.2556 12.2792 18.1781C10.7766 17.8459 9.64969 16.4061 9.64969 14.6673V14.623C10.0862 14.8888 10.5939 15.0549 11.1319 15.0771C10.2487 14.4347 9.67 13.3383 9.67 12.0978C9.67 11.4333 9.83241 10.8242 10.1167 10.2926C11.7309 12.4633 14.1573 13.8809 16.8781 14.036C16.8273 13.7702 16.7969 13.4933 16.7969 13.2165C16.7969 11.245 18.2588 9.63916 20.0761 9.63916C21.0202 9.63916 21.873 10.0711 22.472 10.7688C23.2131 10.6138 23.9238 10.3147 24.5532 9.90497C24.3095 10.7356 23.7918 11.4334 23.1116 11.8763C23.7715 11.7989 24.4111 11.5995 24.9999 11.3226C24.5533 12.0314 23.9949 12.6626 23.3553 13.1721Z" fill="#989898"/>
</g>
<defs>
<clipPath id="clip0">
<rect width="16" height="17.4545" fill="white" transform="translate(8.99997 8)"/>
</clipPath>
</defs>
</svg>
