<svg width="33" height="33" viewBox="0 0 33 33" fill="none" xmlns="http://www.w3.org/2000/svg">
<circle cx="16.5" cy="16.5" r="16.25" fill="#DDDDDD" stroke="#9E9E9E" stroke-width="0.5"/>
<path d="M23.2682 12.2301C23.0937 11.4239 22.5797 10.7889 21.927 10.5734C20.7439 10.1818 16 10.1818 16 10.1818C16 10.1818 11.2561 10.1818 10.073 10.5734C9.42032 10.7889 8.90627 11.4239 8.7318 12.2301C8.41479 13.6915 8.41479 16.7405 8.41479 16.7405C8.41479 16.7405 8.41479 19.7895 8.7318 21.2509C8.90627 22.0572 9.42032 22.6657 10.073 22.8812C11.2561 23.2727 16 23.2727 16 23.2727C16 23.2727 20.7439 23.2727 21.927 22.8812C22.5797 22.6657 23.0937 22.0572 23.2682 21.2509C23.5852 19.7895 23.5852 16.7405 23.5852 16.7405C23.5852 16.7405 23.5852 13.6915 23.2682 12.2301ZM14.4485 19.5088V13.9722L18.4134 16.7406L14.4485 19.5088Z" fill="#989898"/>
</svg>
